# xmcd
#
# Track frame offsets:
# 150
# 27000
# 66534
# 80780
# 97865
# 143875
# 191010
# 212933
# 257417
# 288302
# 308670
#
# Disc length: 4444 seconds
#
#
# Revision: 0
# Processed by: cddbd v1.5.1PL2 Copyright (c) Steve Scherf et al.
# Submitted via: FreeRIP 2.944 
#
DISCID=9d115a0b
DTITLE=Stevie Ray Vaughan - Force of Nature II disc 1
DYEAR=1983
DGENRE=Blues
TTITLE0=Opening Jam
TTITLE1=Come On
TTITLE2=Mary Had A Little Lamb
TTITLE3=Rude Mood
TTITLE4=Dirty Pool
TTITLE5=Voodoo Chile (Slight Return)
TTITLE6=Heartfixer
TTITLE7=Drivin' South
TTITLE8=Texas Flood
TTITLE9=Testify
TTITLE10=Jam 292
EXTD=one of the coolest SRV bootlegs out there - check out the funk he brings onto Lenny on disc 2.
EXTT0=
EXTT1=
EXTT2=
EXTT3=
EXTT4=
EXTT5=
EXTT6=
EXTT7=
EXTT8=
EXTT9=
EXTT10=
PLAYORDER=
